<?xml version="1.0" encoding="utf-8"?>
<!-- Generator: Adobe Illustrator 22.0.1, SVG Export Plug-In . SVG Version: 6.00 Build 0)  -->
<svg version="1.1" id="Layer_1" xmlns="http://www.w3.org/2000/svg" xmlns:xlink="http://www.w3.org/1999/xlink" x="0px" y="0px"
	 viewBox="0 0 385 385" style="enable-background:new 0 0 385 385;" xml:space="preserve">
<style type="text/css">
	.st0{fill:#FFFFFF;}
</style>
<g>
	<path class="st0" d="M326.8,263.8c-0.1,0.2-0.7,1-1.8,2.5c-1.1,1.5-2.6,3.3-4.6,5.4c-2,2.1-4.5,4.4-7.5,6.8
		c-3,2.4-6.5,4.6-10.6,6.6c-4.1,2-8.6,3.7-13.7,5.1c-5.1,1.4-10.7,2.1-16.9,2.1c-9.6,0-18.6-1.2-27-3.6c-8.4-2.4-16.5-5.5-24.3-9.2
		c-7.8-3.7-15.5-7.8-23-12.3c-7.5-4.5-15.2-8.9-23.1-13.2c-4.8,8-10.3,14.6-16.5,19.6c-6.2,5-12.7,9-19.4,11.8
		c-6.7,2.8-13.4,4.8-20,5.8c-6.6,1-12.7,1.5-18.3,1.5c-5.4,0-10.9-0.6-16.4-1.7c-5.5-1.1-10.5-3-15-5.6c-4.5-2.6-8.1-6-11-10.2
		c-2.8-4.2-4.3-9.5-4.3-15.7c0-5.9,1.3-11.2,4-16c2.7-4.8,6.4-8.8,11.2-12.1c4.8-3.3,10.4-5.9,16.8-7.7c6.5-1.8,13.4-2.7,20.9-2.7
		c5.6,0,11.1,0.5,16.7,1.5c5.5,1,11,2.3,16.2,4c5.3,1.7,10.4,3.6,15.4,5.7c5,2.1,9.7,4.2,14.1,6.4c0.6-1.8,1.1-3.5,1.5-5.3
		c0.4-1.8,0.8-3.7,1.2-5.8c0.3-2.1,0.6-4.5,0.7-7.1c0.1-2.6,0.2-5.6,0.2-9c0-3.2-0.1-6.3-0.2-9.3s-0.3-6.1-0.4-9.6
		c-0.1-3.5-0.3-7.4-0.4-11.8c-0.1-4.4-0.2-9.6-0.2-15.7c0-14,1.4-26.8,4.1-38.3c2.7-11.5,6.8-21.4,12.2-29.6
		c5.4-8.2,12.1-14.6,20.1-19.2c8-4.6,17.4-6.8,28.1-6.8c6.5,0,12.6,1,18.4,3.1c5.8,2.1,11,5,15.4,8.8c4.5,3.8,8,8.4,10.6,13.7
		c2.6,5.3,3.9,11.2,3.9,17.6c0,3.5-0.5,7.2-1.5,11c-1,3.8-2.3,7.3-4,10.5c-1.7,3.2-3.7,5.8-5.9,7.9c-2.2,2.1-4.5,3.1-7,3.1
		c-1.4,0-2.6-0.4-3.7-1.2c-1.1-0.8-1.6-2-1.6-3.7c0-1.2,0.3-2.2,0.8-3c0.5-0.8,1.2-1.6,2-2.3c2.8-2.5,5.2-5.7,7-9.4
		c1.8-3.7,2.7-8,2.7-12.9c0-4.9-1-9.3-3-13.3c-2-4-4.7-7.4-8.1-10.1c-3.4-2.8-7.3-4.9-11.8-6.5c-4.5-1.5-9.1-2.3-14-2.3
		c-9.2,0-17.2,2-24,6c-6.8,4-12.3,9.7-16.8,17c-4.4,7.3-7.7,16.1-9.8,26.5c-2.1,10.3-3.2,21.8-3.2,34.5c0,6.1,0.1,11.4,0.2,16
		c0.1,4.6,0.3,8.8,0.4,12.6c0.1,3.8,0.3,7.4,0.4,10.8c0.1,3.4,0.2,6.8,0.2,10.4c0,2.1-0.1,4.3-0.3,6.7c-0.2,2.4-0.5,4.9-0.9,7.3
		c-0.4,2.5-0.9,4.9-1.5,7.3c-0.6,2.4-1.3,4.6-2.1,6.5c7.4,3.9,14.8,8.1,22.1,12.5c7.3,4.4,14.6,8.5,22.1,12.1
		c7.5,3.7,15.2,6.7,23.2,9.1c8,2.4,16.4,3.6,25.4,3.6c7.8,0,14.6-1.2,20.4-3.5c5.7-2.4,10.5-5,14.3-7.9c3.8-2.9,6.6-5.5,8.5-7.9
		c1.9-2.4,2.8-3.6,2.8-3.7c1.1-1.8,2.6-2.6,4.7-2.6c1.7,0,3,0.6,4,1.8c1,1.2,1.5,2.5,1.5,3.8C327.7,261.9,327.4,262.9,326.8,263.8z
		 M164.5,248.3c-4.2-2.1-8.7-4.1-13.3-6.1c-4.7-2-9.4-3.8-14.3-5.4c-4.9-1.6-9.9-2.8-15.1-3.7c-5.1-0.9-10.3-1.4-15.4-1.4
		c-5.8,0-11.2,0.6-16.3,1.8c-5.1,1.2-9.6,3-13.4,5.4c-3.8,2.4-6.8,5.2-9,8.5c-2.2,3.3-3.3,7.1-3.3,11.3c0,3.9,1,7.3,2.9,10.2
		c2,2.9,4.6,5.3,7.9,7.2c3.3,1.9,7.1,3.3,11.4,4.3c4.3,0.9,8.8,1.4,13.5,1.4c5.7,0,11.6-0.5,17.6-1.4c6.1-0.9,12-2.6,17.6-5.1
		c5.7-2.5,11-5.9,16-10.3C156.4,260.7,160.8,255.1,164.5,248.3z"/>
</g>
<path class="st0" d="M191.7,0C158.1,0.1,126.5,8.9,99,24.3c-2.2,1.2-2.9,4-1.5,6.1l0,0c1.2,1.8,3.7,2.4,5.6,1.3
	c27-15.2,55-23.2,89.4-23.2c101.6,0,184.2,82.8,184,184.4c-0.3,100.9-82.6,183.2-183.5,183.5C91.3,376.7,8.5,294.1,8.5,192.5
	c0-42.4,14.4-81.4,38.5-112.5c1.2-1.6,1-3.9-0.5-5.2h0c-1.7-1.5-4.2-1.3-5.6,0.5C15.6,106.7,0,150.7,0,192.5
	C0,298.6,86.3,385,192.5,385c106.3,0,192.7-86.6,192.5-192.9C384.8,86,297.8-0.4,191.7,0z"/>
<g>
	<g id="flights">
		<path class="st0" d="M90.8,30.8c-1.7-0.5-3.6,0-4.9,1.2l-7.4,6.9c0,0,0,0-0.1,0l-31.6-3.1c-0.4,0-0.7,0.1-1,0.3l-2.6,2.4
			c-0.7,0.6-0.5,1.7,0.4,2.1L65,49.4c0.1,0-13.1,14.6-13.1,14.6c0,0-0.1,0-0.1,0l-7.4-1.3c0,0-0.1,0-0.1,0l-3.2,3c0,0,0,0.1,0,0.1
			l9.4,5.6c0,0,0,0,0,0l5,9.7c0,0.1,0.1,0.1,0.1,0l3.2-3c0,0,0,0,0-0.1L58,70.7c0,0,0-0.1,0-0.1c0,0,15.8-13.3,15.8-13.3l7,23.1
			c0.2,0.8,1.2,1.1,1.8,0.5l2.6-2.4c0.3-0.3,0.5-0.8,0.5-1.3L85.4,45c0,0,0-0.1,0-0.1l7-6.6C94.8,36.3,94.3,31.9,90.8,30.8z"/>
	</g>
</g>
</svg>
